<svg width="20" height="19" viewBox="0 0 20 19" fill="none" xmlns="http://www.w3.org/2000/svg">
<path fill-rule="evenodd" clip-rule="evenodd" d="M19 16.65H18.35V1.75002C18.35 1.52459 18.2605 1.30839 18.1011 1.14898C17.9417 0.989578 17.7255 0.900024 17.5 0.900024H12.25C12.0246 0.900024 11.8084 0.989578 11.649 1.14898C11.4896 1.30839 11.4 1.52459 11.4 1.75002V5.40002H7.00002C6.77459 5.40002 6.55839 5.48958 6.39898 5.64898C6.23958 5.80839 6.15002 6.02459 6.15002 6.25002V9.90002H2.50002C2.27459 9.90002 2.05839 9.98958 1.89898 10.149C1.73958 10.3084 1.65002 10.5246 1.65002 10.75V16.65H1.00002C0.774591 16.65 0.55839 16.7396 0.398984 16.899C0.239578 17.0584 0.150024 17.2746 0.150024 17.5C0.150024 17.7255 0.239578 17.9417 0.398984 18.1011C0.55839 18.2605 0.774591 18.35 1.00002 18.35H19C19.2255 18.35 19.4417 18.2605 19.6011 18.1011C19.7605 17.9417 19.85 17.7255 19.85 17.5C19.85 17.2746 19.7605 17.0584 19.6011 16.899C19.4417 16.7396 19.2255 16.65 19 16.65ZM13.1 2.60002H16.65V16.65H13.1V2.60002ZM7.85002 7.10002H11.4V16.65H7.85002V7.10002ZM3.35002 11.6H6.15002V16.65H3.35002V11.6Z" fill="#6E6F76"/>
</svg>
