<svg width="14" height="16" viewBox="0 0 14 16" fill="none" xmlns="http://www.w3.org/2000/svg">
<path d="M3 16C2.71667 16 2.479 15.904 2.287 15.712C2.095 15.52 1.99934 15.2827 2 15V14H1C0.71667 14 0.479004 13.904 0.287004 13.712C0.0950036 13.52 -0.000663206 13.2827 3.4602e-06 13V3C3.4602e-06 2.71667 0.0960036 2.479 0.288004 2.287C0.480004 2.095 0.717337 1.99934 1 2H2V1C2 0.71667 2.096 0.479004 2.288 0.287004C2.48 0.0950036 2.71734 -0.000663206 3 3.4602e-06C3.28334 3.4602e-06 3.521 0.0960036 3.713 0.288004C3.905 0.480004 4.00067 0.717337 4 1V2H5C5.28334 2 5.521 2.096 5.713 2.288C5.905 2.48 6.00067 2.71734 6 3V13C6 13.2833 5.904 13.521 5.712 13.713C5.52 13.905 5.28267 14.0007 5 14H4V15C4 15.2833 3.904 15.521 3.712 15.713C3.52 15.905 3.28267 16.0007 3 16ZM2 12H4V4H2V12ZM11 16C10.7167 16 10.479 15.904 10.287 15.712C10.095 15.52 9.99934 15.2827 10 15V11H9C8.71667 11 8.479 10.904 8.287 10.712C8.095 10.52 7.99934 10.2827 8 10V5C8 4.71667 8.096 4.479 8.288 4.287C8.48 4.095 8.71734 3.99934 9 4H10V1C10 0.71667 10.096 0.479004 10.288 0.287004C10.48 0.0950036 10.7173 -0.000663206 11 3.4602e-06C11.2833 3.4602e-06 11.521 0.0960036 11.713 0.288004C11.905 0.480004 12.0007 0.717337 12 1V4H13C13.2833 4 13.521 4.096 13.713 4.288C13.905 4.48 14.0007 4.71734 14 5V10C14 10.2833 13.904 10.521 13.712 10.713C13.52 10.905 13.2827 11.0007 13 11H12V15C12 15.2833 11.904 15.521 11.712 15.713C11.52 15.905 11.2827 16.0007 11 16ZM10 9H12V6H10V9Z" fill="#6E6F76"/>
</svg>
