<svg width="23" height="22" viewBox="0 0 23 22" fill="none" xmlns="http://www.w3.org/2000/svg">
<path fill-rule="evenodd" clip-rule="evenodd" d="M2.70005 1.75005C2.70005 1.49809 2.59996 1.25646 2.4218 1.0783C2.24364 0.900138 2.002 0.800049 1.75005 0.800049C1.49809 0.800049 1.25646 0.900138 1.0783 1.0783C0.900138 1.25646 0.800049 1.49809 0.800049 1.75005V20.25C0.800049 20.7745 1.22559 21.2001 1.75005 21.2001H20C20.252 21.2001 20.4936 21.1 20.6718 20.9218C20.85 20.7436 20.9501 20.502 20.9501 20.25C20.9501 19.9981 20.85 19.7565 20.6718 19.5783C20.4936 19.4001 20.252 19.3 20 19.3H2.70005V1.75005ZM16.1715 13.1715L22.4215 6.92147L22.4264 6.91639C22.5942 6.7363 22.6855 6.49811 22.6812 6.252C22.6769 6.00588 22.5771 5.77106 22.4031 5.597C22.229 5.42295 21.9942 5.32325 21.7481 5.3189C21.502 5.31456 21.2637 5.40583 21.0836 5.57364L15.5 11.1572L11.9214 7.57854C11.7433 7.40064 11.5018 7.30071 11.25 7.30071C10.9983 7.30071 10.7568 7.40072 10.5786 7.57863L4.58098 13.5763C4.48891 13.6627 4.415 13.7667 4.36358 13.8821C4.31166 13.9986 4.28374 14.1244 4.28149 14.252C4.27924 14.3796 4.3027 14.5063 4.35048 14.6245C4.39826 14.7428 4.46938 14.8503 4.55959 14.9405C4.6498 15.0307 4.75726 15.1018 4.87555 15.1496C4.99384 15.1974 5.12054 15.2209 5.2481 15.2186C5.37566 15.2164 5.50145 15.1884 5.61799 15.1365C5.73338 15.0851 5.83736 15.0112 5.92383 14.9191L11.25 9.59289L14.8287 13.1716C15.0068 13.3495 15.2483 13.4494 15.5 13.4494C15.7518 13.4494 15.9933 13.3494 16.1715 13.1715Z" fill="#6E6F76"/>
</svg>
