<svg width="20" height="19" viewBox="0 0 20 19" fill="none" xmlns="http://www.w3.org/2000/svg">
<path fill-rule="evenodd" clip-rule="evenodd" d="M19 16.65H18.35V1.74999C18.35 1.52456 18.2605 1.30836 18.1011 1.14895C17.9417 0.989547 17.7255 0.899994 17.5 0.899994H12.25C12.0246 0.899994 11.8084 0.989547 11.649 1.14895C11.4896 1.30836 11.4 1.52456 11.4 1.74999V5.39999H7.00002C6.77459 5.39999 6.55839 5.48955 6.39898 5.64895C6.23958 5.80836 6.15002 6.02456 6.15002 6.24999V9.89999H2.50002C2.27459 9.89999 2.05839 9.98955 1.89898 10.149C1.73958 10.3084 1.65002 10.5246 1.65002 10.75V16.65H1.00002C0.774591 16.65 0.55839 16.7395 0.398984 16.899C0.239578 17.0584 0.150024 17.2746 0.150024 17.5C0.150024 17.7254 0.239578 17.9416 0.398984 18.101C0.55839 18.2604 0.774591 18.35 1.00002 18.35H19C19.2255 18.35 19.4417 18.2604 19.6011 18.101C19.7605 17.9416 19.85 17.7254 19.85 17.5C19.85 17.2746 19.7605 17.0584 19.6011 16.899C19.4417 16.7395 19.2255 16.65 19 16.65ZM13.1 2.59999H16.65V16.65H13.1V2.59999ZM7.85002 7.09999H11.4V16.65H7.85002V7.09999ZM3.35002 11.6H6.15002V16.65H3.35002V11.6Z" fill="#6E6F76"/>
</svg>
