<svg width="40" height="40" viewBox="0 0 40 40" fill="none" xmlns="http://www.w3.org/2000/svg">
<circle cx="20" cy="20" r="20" fill="#46474E"/>
<path d="M29.8866 28.0621C28.4236 25.5328 26.169 23.7192 23.5379 22.8594C24.8394 22.0847 25.8506 20.9041 26.4161 19.499C26.9817 18.094 27.0704 16.5421 26.6686 15.0817C26.2668 13.6213 25.3968 12.3332 24.1921 11.4152C22.9874 10.4972 21.5146 10 20 10C18.4854 10 17.0126 10.4972 15.8079 11.4152C14.6032 12.3332 13.7332 13.6213 13.3314 15.0817C12.9296 16.5421 13.0183 18.094 13.5839 19.499C14.1494 20.9041 15.1606 22.0847 16.4621 22.8594C13.831 23.7182 11.5764 25.5319 10.1134 28.0621C10.0597 28.1496 10.0241 28.2469 10.0087 28.3484C9.99331 28.4498 9.99836 28.5534 10.0236 28.6528C10.0488 28.7523 10.0937 28.8457 10.1556 28.9276C10.2176 29.0094 10.2952 29.078 10.3841 29.1293C10.473 29.1807 10.5712 29.2137 10.673 29.2264C10.7749 29.2392 10.8782 29.2314 10.977 29.2035C11.0758 29.1757 11.168 29.1284 11.2481 29.0643C11.3283 29.0002 11.3949 28.9208 11.4438 28.8306C13.2536 25.7028 16.4525 23.8354 20 23.8354C23.5475 23.8354 26.7464 25.7028 28.5562 28.8306C28.6051 28.9208 28.6717 29.0002 28.7519 29.0643C28.832 29.1284 28.9242 29.1757 29.023 29.2035C29.1218 29.2314 29.2251 29.2392 29.327 29.2264C29.4288 29.2137 29.527 29.1807 29.6159 29.1293C29.7048 29.078 29.7824 29.0094 29.8444 28.9276C29.9063 28.8457 29.9512 28.7523 29.9764 28.6528C30.0016 28.5534 30.0067 28.4498 29.9913 28.3484C29.9759 28.2469 29.9403 28.1496 29.8866 28.0621ZM14.6206 16.919C14.6206 15.8551 14.9361 14.815 15.5272 13.9304C16.1183 13.0457 16.9584 12.3562 17.9414 11.9491C18.9243 11.5419 20.006 11.4354 21.0495 11.643C22.093 11.8505 23.0515 12.3629 23.8038 13.1152C24.5562 13.8675 25.0685 14.826 25.2761 15.8695C25.4836 16.913 25.3771 17.9947 24.9699 18.9776C24.5628 19.9606 23.8733 20.8007 22.9886 21.3918C22.104 21.9829 21.064 22.2984 20 22.2984C18.5738 22.2969 17.2064 21.7297 16.1979 20.7212C15.1894 19.7127 14.6221 18.3453 14.6206 16.919Z" fill="#6E6F76"/>
</svg>
