<svg width="24" height="24" viewBox="0 0 24 24" xmlns="http://www.w3.org/2000/svg">
<path fill-rule="evenodd" clip-rule="evenodd" d="M14.9962 13.0022C14.9843 13.01 14.9727 13.0181 14.9614 13.0265C14.9493 13.0356 14.9374 13.0449 14.9258 13.0547C14.9374 13.0449 14.9493 13.0356 14.9614 13.0265C14.9727 13.0181 14.9843 13.01 14.9962 13.0022ZM15.6814 12.6568C15.4166 12.6813 15.1621 12.7713 14.9409 12.9188C14.9133 12.9371 14.8863 12.9573 14.861 12.9786L12.6292 14.8812C11.2413 14.1873 9.81662 12.7733 9.12248 11.4037L11.0283 9.13748L11.0299 9.13557C11.0496 9.1109 11.0698 9.08428 11.0889 9.05567C11.2333 8.83497 11.321 8.58199 11.344 8.31924C11.3664 8.06341 11.3269 7.80605 11.229 7.56887V7.55638L9.23578 3.11335C9.09848 2.79688 8.86257 2.53326 8.56323 2.3618C8.26369 2.19022 7.91577 2.12024 7.57311 2.16208C6.27869 2.33241 5.09053 2.96811 4.23054 3.95044C3.37058 4.93275 2.89759 6.19451 2.89991 7.50006C2.89996 14.9989 9.00087 21.0999 16.4997 21.1C17.8053 21.1023 19.0671 20.6293 20.0494 19.7693C21.0318 18.9094 21.6676 17.7203 21.8379 16.4259C21.8798 16.0833 21.8099 15.7364 21.6385 15.4369C21.4672 15.1375 21.2032 14.9013 20.8869 14.7639L16.4725 12.7857L16.4714 12.7853L16.4603 12.7801L16.4577 12.779C16.2131 12.6744 15.9463 12.6324 15.6814 12.6568ZM18.9272 18.4937C18.2553 19.0808 17.3925 19.403 16.5002 19.4C16.3916 19.3999 16.2832 19.3983 16.1749 19.3952C13.1379 19.309 10.2433 18.0649 8.08918 15.9107C5.85822 13.6797 4.60335 10.6546 4.59991 7.49959C4.59648 6.6084 4.91755 5.74643 5.50317 5.07466C6.0714 4.42282 6.85102 3.99331 7.70378 3.86044L9.62095 8.15126L7.72376 10.422C7.70113 10.4481 7.68055 10.4759 7.66219 10.5052C7.51201 10.7359 7.42391 11.0015 7.40641 11.2763C7.38889 11.5514 7.44292 11.8267 7.56289 12.0748C8.42219 13.8323 10.1895 15.5859 11.9654 16.444C12.2154 16.5629 12.4919 16.6149 12.768 16.5949C13.044 16.5749 13.3105 16.4834 13.5408 16.3298C13.5679 16.3115 13.5942 16.2916 13.6192 16.2704L15.3054 14.8319L15.8502 14.3671L20.1396 16.2882C20.0083 17.1425 19.5793 17.9239 18.9272 18.4937ZM20.2354 16.3234C20.2406 16.2902 20.2455 16.2568 20.2499 16.2234C20.2467 16.2477 20.2433 16.2719 20.2396 16.2961L20.2354 16.3234Z"/>
</svg>
