<svg width="24" height="24" viewBox="0 0 24 24" xmlns="http://www.w3.org/2000/svg">
<g clip-path="url(#clip0_50_2380)">
<path d="M12 1C5.92491 1 1 5.92491 1 12C1 18.0754 5.92491 23 12 23C18.0754 23 23 18.0754 23 12C23 5.92491 18.0754 1 12 1ZM12 21.6467C6.69284 21.6467 2.375 17.3072 2.375 12C2.375 6.6928 6.69284 2.37496 12 2.37496C17.3072 2.37496 21.625 6.69282 21.625 12C21.625 17.3071 17.3072 21.6467 12 21.6467ZM16.39 7.97503L9.9361 14.4695L7.0297 11.5631C6.76123 11.2946 6.32604 11.2946 6.05723 11.5631C5.78876 11.8316 5.78876 12.2667 6.05723 12.5352L9.46001 15.9383C9.72848 16.2065 10.1637 16.2065 10.4325 15.9383C10.4634 15.9074 10.4899 15.8737 10.514 15.8387L17.3628 8.94748C17.631 8.67901 17.631 8.24382 17.3628 7.97503C17.094 7.70656 16.6588 7.70656 16.39 7.97503Z"/>
<path fill-rule="evenodd" clip-rule="evenodd" d="M16.2487 7.83357C16.5956 7.48712 17.1573 7.48712 17.5042 7.83357C17.8502 8.18036 17.8506 8.74221 17.5044 9.08881C17.5044 9.08883 17.5045 9.0888 17.5044 9.08881L10.668 15.9675C10.6415 16.0047 10.6107 16.043 10.5739 16.0798C10.2271 16.4258 9.66533 16.4261 9.31873 16.0799L5.91586 12.6767C5.91585 12.6767 5.91586 12.6767 5.91586 12.6767C5.56929 12.3301 5.56928 11.7683 5.91586 11.4217C6.2627 11.0753 6.82454 11.0751 7.17117 11.4217L9.93571 14.1863L16.2487 7.83357ZM9.93615 14.4695L7.02975 11.5631C6.76128 11.2947 6.32609 11.2947 6.05728 11.5631C5.78881 11.8316 5.78881 12.2668 6.05728 12.5353L9.46006 15.9384C9.72853 16.2065 10.1637 16.2065 10.4325 15.9384C10.4635 15.9075 10.49 15.8737 10.514 15.8387L17.3629 8.94753C17.631 8.67906 17.631 8.24387 17.3629 7.97508C17.0941 7.70661 16.6589 7.70661 16.3901 7.97508L9.93615 14.4695ZM0.800049 12C0.800049 5.8145 5.8145 0.800049 12 0.800049C18.1859 0.800049 23.2001 5.8145 23.2001 12C23.2001 18.1859 18.1859 23.2001 12 23.2001C5.8145 23.2001 0.800049 18.1859 0.800049 12ZM2.57505 12C2.57505 17.1973 6.80393 21.4467 12 21.4467C17.1962 21.4467 21.425 17.1973 21.425 12C21.425 6.80333 17.1967 2.57501 12 2.57501C6.80335 2.57501 2.57505 6.80331 2.57505 12ZM1.00005 12C1.00005 5.92495 5.92495 1.00005 12 1.00005C18.0755 1.00005 23 5.92495 23 12C23 18.0755 18.0755 23 12 23C5.92495 23 1.00005 18.0755 1.00005 12ZM2.37505 12C2.37505 17.3072 6.69289 21.6467 12 21.6467C17.3072 21.6467 21.625 17.3071 21.625 12C21.625 6.69287 17.3072 2.37501 12 2.37501C6.69289 2.37501 2.37505 6.69285 2.37505 12Z"/>
</g>
<defs>
<clipPath id="clip0_50_2380">
<rect width="24" height="24"/>
</clipPath>
</defs>
</svg>
