<svg width="24" height="24" viewBox="0 0 24 24" xmlns="http://www.w3.org/2000/svg">
<mask id="path-1-outside-1_52_5442" maskUnits="userSpaceOnUse" x="1.22363" y="7.95923" width="21" height="11">
<rect x="1.22363" y="7.95923" width="21" height="11"/>
<path d="M21.375 16.4063C21.2893 16.4551 21.1948 16.4866 21.097 16.4989C20.9991 16.5112 20.8998 16.5041 20.8047 16.478C20.7097 16.4518 20.6207 16.4072 20.5428 16.3467C20.465 16.2861 20.3999 16.2108 20.3512 16.125L18.57 13.0125C17.5344 13.7127 16.392 14.2402 15.1875 14.5744L15.7378 17.8763C15.754 17.9735 15.7509 18.0729 15.7287 18.1689C15.7065 18.2649 15.6656 18.3556 15.6083 18.4358C15.551 18.516 15.4784 18.5841 15.3948 18.6363C15.3112 18.6884 15.2181 18.7236 15.1209 18.7397C15.0809 18.7462 15.0405 18.7497 15 18.75C14.8225 18.7498 14.6509 18.6866 14.5157 18.5718C14.3804 18.4569 14.2903 18.2979 14.2612 18.1228L13.7203 14.881C12.5795 15.0397 11.4223 15.0397 10.2815 14.881L9.74058 18.1228C9.71147 18.2982 9.62103 18.4575 9.48538 18.5724C9.34974 18.6872 9.1777 18.7502 8.99995 18.75C8.9585 18.7498 8.91712 18.7464 8.8762 18.7397C8.77898 18.7236 8.6859 18.6884 8.60227 18.6363C8.51864 18.5841 8.44611 18.516 8.38882 18.4358C8.33153 18.3556 8.29061 18.2649 8.26839 18.1689C8.24617 18.0729 8.24309 17.9735 8.25933 17.8763L8.81245 14.5744C7.60835 14.2391 6.46664 13.7107 5.43183 13.0097L3.6562 16.125C3.55675 16.2983 3.39252 16.425 3.19965 16.4772C3.00678 16.5294 2.80107 16.5029 2.62776 16.4035C2.45446 16.304 2.32777 16.1398 2.27555 15.9469C2.22333 15.754 2.24987 15.5483 2.34933 15.375L4.22433 12.0938C3.56573 11.5248 2.96013 10.8972 2.41495 10.2188C2.34696 10.1429 2.29516 10.0539 2.2627 9.95729C2.23024 9.86069 2.2178 9.75849 2.22616 9.65693C2.23451 9.55536 2.26347 9.45657 2.31127 9.36657C2.35908 9.27657 2.42472 9.19726 2.5042 9.13347C2.58367 9.06969 2.67531 9.02277 2.77353 8.99558C2.87174 8.96839 2.97446 8.9615 3.07542 8.97533C3.17639 8.98916 3.27347 9.02342 3.36075 9.07602C3.44804 9.12862 3.52368 9.19846 3.58308 9.28127C5.13933 11.2069 7.86183 13.5 12 13.5C16.1381 13.5 18.8606 11.2041 20.4168 9.28127C20.4755 9.19676 20.551 9.12525 20.6386 9.07117C20.7261 9.01708 20.8238 8.9816 20.9257 8.96691C21.0275 8.95222 21.1313 8.95865 21.2306 8.98579C21.3298 9.01293 21.4224 9.06021 21.5026 9.12468C21.5828 9.18915 21.6489 9.26943 21.6968 9.36054C21.7446 9.45164 21.7732 9.55161 21.7807 9.65423C21.7883 9.75686 21.7746 9.85993 21.7406 9.95706C21.7066 10.0542 21.653 10.1433 21.5831 10.2188C21.0379 10.8972 20.4323 11.5248 19.7737 12.0938L21.6487 15.375C21.699 15.4606 21.7319 15.5552 21.7454 15.6535C21.7588 15.7519 21.7527 15.8519 21.7272 15.9478C21.7017 16.0437 21.6575 16.1337 21.597 16.2123C21.5366 16.291 21.4611 16.357 21.375 16.4063Z"/>
</mask>
<path d="M21.375 16.4063C21.2893 16.4551 21.1948 16.4866 21.097 16.4989C20.9991 16.5112 20.8998 16.5041 20.8047 16.478C20.7097 16.4518 20.6207 16.4072 20.5428 16.3467C20.465 16.2861 20.3999 16.2108 20.3512 16.125L18.57 13.0125C17.5344 13.7127 16.392 14.2402 15.1875 14.5744L15.7378 17.8763C15.754 17.9735 15.7509 18.0729 15.7287 18.1689C15.7065 18.2649 15.6656 18.3556 15.6083 18.4358C15.551 18.516 15.4784 18.5841 15.3948 18.6363C15.3112 18.6884 15.2181 18.7236 15.1209 18.7397C15.0809 18.7462 15.0405 18.7497 15 18.75C14.8225 18.7498 14.6509 18.6866 14.5157 18.5718C14.3804 18.4569 14.2903 18.2979 14.2612 18.1228L13.7203 14.881C12.5795 15.0397 11.4223 15.0397 10.2815 14.881L9.74058 18.1228C9.71147 18.2982 9.62103 18.4575 9.48538 18.5724C9.34974 18.6872 9.1777 18.7502 8.99995 18.75C8.9585 18.7498 8.91712 18.7464 8.8762 18.7397C8.77898 18.7236 8.6859 18.6884 8.60227 18.6363C8.51864 18.5841 8.44611 18.516 8.38882 18.4358C8.33153 18.3556 8.29061 18.2649 8.26839 18.1689C8.24617 18.0729 8.24309 17.9735 8.25933 17.8763L8.81245 14.5744C7.60835 14.2391 6.46664 13.7107 5.43183 13.0097L3.6562 16.125C3.55675 16.2983 3.39252 16.425 3.19965 16.4772C3.00678 16.5294 2.80107 16.5029 2.62776 16.4035C2.45446 16.304 2.32777 16.1398 2.27555 15.9469C2.22333 15.754 2.24987 15.5483 2.34933 15.375L4.22433 12.0938C3.56573 11.5248 2.96013 10.8972 2.41495 10.2188C2.34696 10.1429 2.29516 10.0539 2.2627 9.95729C2.23024 9.86069 2.2178 9.75849 2.22616 9.65693C2.23451 9.55536 2.26347 9.45657 2.31127 9.36657C2.35908 9.27657 2.42472 9.19726 2.5042 9.13347C2.58367 9.06969 2.67531 9.02277 2.77353 8.99558C2.87174 8.96839 2.97446 8.9615 3.07542 8.97533C3.17639 8.98916 3.27347 9.02342 3.36075 9.07602C3.44804 9.12862 3.52368 9.19846 3.58308 9.28127C5.13933 11.2069 7.86183 13.5 12 13.5C16.1381 13.5 18.8606 11.2041 20.4168 9.28127C20.4755 9.19676 20.551 9.12525 20.6386 9.07117C20.7261 9.01708 20.8238 8.9816 20.9257 8.96691C21.0275 8.95222 21.1313 8.95865 21.2306 8.98579C21.3298 9.01293 21.4224 9.06021 21.5026 9.12468C21.5828 9.18915 21.6489 9.26943 21.6968 9.36054C21.7446 9.45164 21.7732 9.55161 21.7807 9.65423C21.7883 9.75686 21.7746 9.85993 21.7406 9.95706C21.7066 10.0542 21.653 10.1433 21.5831 10.2188C21.0379 10.8972 20.4323 11.5248 19.7737 12.0938L21.6487 15.375C21.699 15.4606 21.7319 15.5552 21.7454 15.6535C21.7588 15.7519 21.7527 15.8519 21.7272 15.9478C21.7017 16.0437 21.6575 16.1337 21.597 16.2123C21.5366 16.291 21.4611 16.357 21.375 16.4063Z"/>
<path d="M21.375 16.4063L21.474 16.58L21.4743 16.5798L21.375 16.4063ZM20.3512 16.125L20.5251 16.0263L20.5248 16.0257L20.3512 16.125ZM18.57 13.0125L18.7435 12.9132L18.6365 12.7261L18.4579 12.8468L18.57 13.0125ZM15.1875 14.5744L15.134 14.3817L14.9606 14.4298L14.9902 14.6073L15.1875 14.5744ZM15.7378 17.8763L15.5405 17.9091L15.5405 17.9092L15.7378 17.8763ZM15.1209 18.7397L15.1532 18.9371L15.1537 18.937L15.1209 18.7397ZM15 18.75L14.9997 18.95L15.0015 18.95L15 18.75ZM14.2612 18.1228L14.4585 18.0901L14.4585 18.0899L14.2612 18.1228ZM13.7203 14.881L13.9175 14.848L13.8855 14.656L13.6927 14.6829L13.7203 14.881ZM10.2815 14.881L10.3091 14.6829L10.1163 14.656L10.0842 14.848L10.2815 14.881ZM9.74058 18.1228L9.5433 18.0899L9.54328 18.0901L9.74058 18.1228ZM8.99995 18.75L8.99911 18.95H8.99975L8.99995 18.75ZM8.8762 18.7397L8.84344 18.937L8.84393 18.9371L8.8762 18.7397ZM8.25933 17.8763L8.06208 17.8432L8.06206 17.8433L8.25933 17.8763ZM8.81245 14.5744L9.0097 14.6074L9.03943 14.43L8.8661 14.3817L8.81245 14.5744ZM5.43183 13.0097L5.544 12.8441L5.36508 12.7229L5.25807 12.9107L5.43183 13.0097ZM3.6562 16.125L3.82967 16.2246L3.82996 16.2241L3.6562 16.125ZM2.34933 15.375L2.52279 15.4746L2.52298 15.4742L2.34933 15.375ZM4.22433 12.0938L4.39798 12.193L4.47966 12.0501L4.35508 11.9424L4.22433 12.0938ZM2.41495 10.2188L2.57108 10.0933L2.56393 10.0853L2.41495 10.2188ZM3.58308 9.28127L3.42029 9.39803L3.42753 9.40698L3.58308 9.28127ZM20.4168 9.28127L20.5723 9.40709L20.5769 9.4014L20.5811 9.39539L20.4168 9.28127ZM21.5831 10.2188L21.436 10.0826L21.4272 10.0935L21.5831 10.2188ZM19.7737 12.0938L19.643 11.9424L19.5184 12.0501L19.6001 12.193L19.7737 12.0938ZM21.6487 15.375L21.475 15.4743L21.4763 15.4764L21.6487 15.375ZM21.2759 16.2325C21.2131 16.2684 21.1438 16.2914 21.072 16.3005L21.1219 16.6973C21.2459 16.6817 21.3655 16.6419 21.474 16.58L21.2759 16.2325ZM21.072 16.3005C21.0003 16.3095 20.9275 16.3043 20.8577 16.2851L20.7518 16.6708C20.8722 16.7039 20.998 16.7129 21.1219 16.6973L21.072 16.3005ZM20.8577 16.2851C20.788 16.2659 20.7227 16.2332 20.6657 16.1888L20.42 16.5045C20.5186 16.5812 20.6313 16.6377 20.7518 16.6708L20.8577 16.2851ZM20.6657 16.1888C20.6086 16.1444 20.5608 16.0892 20.5251 16.0263L20.1773 16.2238C20.2389 16.3324 20.3214 16.4278 20.42 16.5045L20.6657 16.1888ZM20.5248 16.0257L18.7435 12.9132L18.3964 13.1119L20.1776 16.2244L20.5248 16.0257ZM18.4579 12.8468C17.4403 13.5349 16.3177 14.0533 15.134 14.3817L15.2409 14.7671C16.4663 14.4271 17.6285 13.8905 18.682 13.1782L18.4579 12.8468ZM14.9902 14.6073L15.5405 17.9091L15.935 17.8434L15.3847 14.5415L14.9902 14.6073ZM15.5405 17.9092C15.5524 17.9805 15.5501 18.0534 15.5339 18.1238L15.9236 18.214C15.9517 18.0924 15.9556 17.9664 15.935 17.8433L15.5405 17.9092ZM15.5339 18.1238C15.5176 18.1943 15.4875 18.2608 15.4455 18.3196L15.771 18.5521C15.8436 18.4505 15.8954 18.3356 15.9236 18.214L15.5339 18.1238ZM15.4455 18.3196C15.4035 18.3784 15.3503 18.4283 15.289 18.4666L15.5006 18.806C15.6066 18.7399 15.6984 18.6537 15.771 18.5521L15.4455 18.3196ZM15.289 18.4666C15.2277 18.5048 15.1594 18.5306 15.0881 18.5424L15.1537 18.937C15.2768 18.9166 15.3947 18.872 15.5006 18.806L15.289 18.4666ZM15.0886 18.5423C15.0588 18.5472 15.0286 18.5498 14.9984 18.55L15.0015 18.95C15.0523 18.9496 15.103 18.9453 15.1532 18.9371L15.0886 18.5423ZM15.0003 18.55C14.8701 18.5498 14.7443 18.5035 14.6451 18.4193L14.3862 18.7242C14.5576 18.8697 14.7749 18.9497 14.9997 18.95L15.0003 18.55ZM14.6451 18.4193C14.5459 18.3351 14.4798 18.2184 14.4585 18.0901L14.0639 18.1556C14.1007 18.3773 14.2149 18.5788 14.3862 18.7242L14.6451 18.4193ZM14.4585 18.0899L13.9175 14.848L13.523 14.9139L14.0639 18.1557L14.4585 18.0899ZM13.6927 14.6829C12.5702 14.8391 11.4315 14.8391 10.3091 14.6829L10.2539 15.079C11.413 15.2403 12.5888 15.2403 13.7478 15.079L13.6927 14.6829ZM10.0842 14.848L9.5433 18.0899L9.93785 18.1557L10.4788 14.9139L10.0842 14.848ZM9.54328 18.0901C9.52193 18.2187 9.45561 18.3355 9.35614 18.4197L9.61463 18.725C9.78645 18.5795 9.90101 18.3777 9.93788 18.1556L9.54328 18.0901ZM9.35614 18.4197C9.25666 18.504 9.1305 18.5501 9.00015 18.55L8.99975 18.95C9.2249 18.9502 9.44281 18.8705 9.61463 18.725L9.35614 18.4197ZM9.0008 18.55C8.96987 18.5499 8.939 18.5473 8.90847 18.5423L8.84393 18.9371C8.89524 18.9455 8.94712 18.9498 8.99911 18.95L9.0008 18.55ZM8.90897 18.5424C8.83767 18.5306 8.76941 18.5048 8.70809 18.4666L8.49646 18.806C8.60239 18.872 8.72029 18.9166 8.84344 18.937L8.90897 18.5424ZM8.70809 18.4666C8.64676 18.4283 8.59357 18.3784 8.55156 18.3196L8.22609 18.5521C8.29865 18.6537 8.39053 18.7399 8.49646 18.806L8.70809 18.4666ZM8.55156 18.3196C8.50954 18.2608 8.47953 18.1943 8.46324 18.1238L8.07354 18.214C8.10168 18.3356 8.15352 18.4505 8.22609 18.5521L8.55156 18.3196ZM8.46324 18.1238C8.44694 18.0534 8.44469 17.9805 8.45659 17.9092L8.06206 17.8433C8.04149 17.9664 8.04539 18.0924 8.07354 18.214L8.46324 18.1238ZM8.45658 17.9093L9.0097 14.6074L8.6152 14.5413L8.06208 17.8432L8.45658 17.9093ZM8.8661 14.3817C7.68285 14.0523 6.5609 13.533 5.544 12.8441L5.31966 13.1753C6.37239 13.8884 7.53386 14.426 8.75881 14.7671L8.8661 14.3817ZM5.25807 12.9107L3.48244 16.026L3.82996 16.2241L5.60559 13.1087L5.25807 12.9107ZM3.48274 16.0255C3.40968 16.1528 3.28905 16.2458 3.14738 16.2842L3.25192 16.6703C3.49599 16.6042 3.70381 16.4439 3.82967 16.2246L3.48274 16.0255ZM3.14738 16.2842C3.00571 16.3225 2.85461 16.303 2.72731 16.23L2.52822 16.5769C2.74752 16.7028 3.00785 16.7364 3.25192 16.6703L3.14738 16.2842ZM2.72731 16.23C2.60002 16.1569 2.50695 16.0363 2.4686 15.8946L2.0825 15.9992C2.14858 16.2432 2.30891 16.4511 2.52822 16.5769L2.72731 16.23ZM2.4686 15.8946C2.43024 15.753 2.44974 15.6019 2.52279 15.4746L2.17586 15.2755C2.05 15.4948 2.01642 15.7551 2.0825 15.9992L2.4686 15.8946ZM2.52298 15.4742L4.39798 12.193L4.05068 11.9945L2.17568 15.2758L2.52298 15.4742ZM4.35508 11.9424C3.70564 11.3813 3.10845 10.7625 2.57085 10.0935L2.25905 10.344C2.8118 11.0319 3.42583 11.6682 4.09358 12.2451L4.35508 11.9424ZM2.56393 10.0853C2.51408 10.0297 2.47608 9.96442 2.45228 9.89358L2.07312 10.021C2.11423 10.1434 2.17985 10.256 2.26597 10.3522L2.56393 10.0853ZM2.45228 9.89358C2.42848 9.82274 2.41936 9.7478 2.42548 9.67332L2.02683 9.64053C2.01625 9.76918 2.032 9.89864 2.07312 10.021L2.45228 9.89358ZM2.42548 9.67332C2.43161 9.59884 2.45285 9.52639 2.4879 9.46039L2.13464 9.27275C2.07409 9.38675 2.03741 9.51189 2.02683 9.64053L2.42548 9.67332ZM2.4879 9.46039C2.52296 9.39439 2.5711 9.33623 2.62938 9.28945L2.37901 8.97749C2.27834 9.05829 2.1952 9.15875 2.13464 9.27275L2.4879 9.46039ZM2.62938 9.28945C2.68766 9.24268 2.75486 9.20827 2.82689 9.18833L2.72016 8.80283C2.59576 8.83727 2.47968 8.8967 2.37901 8.97749L2.62938 9.28945ZM2.82689 9.18833C2.89891 9.16839 2.97424 9.16334 3.04828 9.17348L3.10257 8.77718C2.97468 8.75966 2.84456 8.76839 2.72016 8.80283L2.82689 9.18833ZM3.04828 9.17348C3.12232 9.18362 3.19352 9.20875 3.25752 9.24732L3.46399 8.90472C3.35343 8.8381 3.23045 8.7947 3.10257 8.77718L3.04828 9.17348ZM3.25752 9.24732C3.32153 9.28589 3.377 9.33711 3.42056 9.39783L3.7456 9.1647C3.67036 9.05981 3.57454 8.97135 3.46399 8.90472L3.25752 9.24732ZM3.42753 9.40698C5.00491 11.3588 7.77894 13.7 12 13.7V13.3C7.94472 13.3 5.27375 11.055 3.73863 9.15555L3.42753 9.40698ZM12 13.7C16.221 13.7 18.995 11.3559 20.5723 9.40709L20.2614 9.15544C18.7261 11.0523 16.0551 13.3 12 13.3V13.7ZM20.5811 9.39539C20.6241 9.33342 20.6795 9.28097 20.7437 9.24132L20.5335 8.90101C20.4226 8.96952 20.327 9.06011 20.2526 9.16714L20.5811 9.39539ZM20.7437 9.24132C20.8079 9.20166 20.8795 9.17563 20.9542 9.16486L20.8971 8.76896C20.7681 8.78756 20.6443 8.83251 20.5335 8.90101L20.7437 9.24132ZM20.9542 9.16486C21.0289 9.15409 21.105 9.1588 21.1778 9.17871L21.2833 8.79287C21.1576 8.75849 21.0261 8.75035 20.8971 8.76896L20.9542 9.16486ZM21.1778 9.17871C21.2506 9.19861 21.3185 9.23328 21.3773 9.28056L21.6279 8.9688C21.5264 8.88714 21.409 8.82725 21.2833 8.79287L21.1778 9.17871ZM21.3773 9.28056C21.4361 9.32784 21.4846 9.38671 21.5197 9.45352L21.8738 9.26755C21.8132 9.15215 21.7295 9.05046 21.6279 8.9688L21.3773 9.28056ZM21.5197 9.45352C21.5548 9.52033 21.5757 9.59364 21.5813 9.6689L21.9802 9.63957C21.9706 9.50958 21.9344 9.38295 21.8738 9.26755L21.5197 9.45352ZM21.5813 9.6689C21.5868 9.74416 21.5768 9.81975 21.5518 9.89097L21.9294 10.0231C21.9724 9.90012 21.9897 9.76956 21.9802 9.63957L21.5813 9.6689ZM21.5518 9.89097C21.5269 9.96219 21.4876 10.0275 21.4363 10.0829L21.7298 10.3546C21.8184 10.259 21.8863 10.1462 21.9294 10.0231L21.5518 9.89097ZM21.4272 10.0935C20.8896 10.7625 20.2924 11.3813 19.643 11.9424L19.9045 12.2451C20.5722 11.6682 21.1862 11.0319 21.739 10.344L21.4272 10.0935ZM19.6001 12.193L21.4751 15.4742L21.8224 15.2758L19.9474 11.9945L19.6001 12.193ZM21.4763 15.4764C21.5132 15.5392 21.5373 15.6086 21.5472 15.6807L21.9435 15.6264C21.9264 15.5018 21.8848 15.3819 21.8211 15.2736L21.4763 15.4764ZM21.5472 15.6807C21.5571 15.7528 21.5526 15.8262 21.5339 15.8965L21.9205 15.9991C21.9528 15.8776 21.9606 15.7509 21.9435 15.6264L21.5472 15.6807ZM21.5339 15.8965C21.5152 15.9668 21.4828 16.0328 21.4384 16.0905L21.7556 16.3342C21.8322 16.2345 21.8883 16.1206 21.9205 15.9991L21.5339 15.8965ZM21.4384 16.0905C21.3941 16.1482 21.3387 16.1965 21.2756 16.2327L21.4743 16.5798C21.5834 16.5174 21.679 16.4339 21.7556 16.3342L21.4384 16.0905Z" mask="url(#path-1-outside-1_52_5442)"/>
</svg>
