<svg width="24" height="24" viewBox="0 0 24 24" xmlns="http://www.w3.org/2000/svg">
<mask id="path-1-outside-1_52_5457" maskUnits="userSpaceOnUse" x="-0.25" y="3.5" width="24" height="17" fill="black">
<rect x="-0.25" y="3.5" width="24" height="17"/>
<path d="M23.1853 11.6962C23.1525 11.6222 22.3584 9.86062 20.5931 8.09531C18.2409 5.74312 15.27 4.5 12 4.5C8.72999 4.5 5.75905 5.74312 3.40687 8.09531C1.64155 9.86062 0.843741 11.625 0.814679 11.6962C0.772035 11.7922 0.75 11.896 0.75 12.0009C0.75 12.1059 0.772035 12.2097 0.814679 12.3056C0.847491 12.3797 1.64155 14.1403 3.40687 15.9056C5.75905 18.2569 8.72999 19.5 12 19.5C15.27 19.5 18.2409 18.2569 20.5931 15.9056C22.3584 14.1403 23.1525 12.3797 23.1853 12.3056C23.2279 12.2097 23.25 12.1059 23.25 12.0009C23.25 11.896 23.2279 11.7922 23.1853 11.6962ZM12 18C9.11437 18 6.59343 16.9509 4.50655 14.8828C3.65028 14.0313 2.92179 13.0603 2.34374 12C2.92164 10.9396 3.65014 9.9686 4.50655 9.11719C6.59343 7.04906 9.11437 6 12 6C14.8856 6 17.4066 7.04906 19.4934 9.11719C20.3514 9.9684 21.0815 10.9394 21.6609 12C20.985 13.2619 18.0403 18 12 18ZM12 7.5C11.11 7.5 10.2399 7.76392 9.49993 8.25839C8.7599 8.75285 8.18313 9.45566 7.84253 10.2779C7.50194 11.1002 7.41282 12.005 7.58646 12.8779C7.76009 13.7508 8.18867 14.5526 8.81801 15.182C9.44735 15.8113 10.2492 16.2399 11.1221 16.4135C11.995 16.5872 12.8998 16.4981 13.7221 16.1575C14.5443 15.8169 15.2471 15.2401 15.7416 14.5001C16.2361 13.76 16.5 12.89 16.5 12C16.4988 10.8069 16.0242 9.66303 15.1806 8.81939C14.337 7.97575 13.1931 7.50124 12 7.5ZM12 15C11.4066 15 10.8266 14.8241 10.3333 14.4944C9.83993 14.1648 9.45542 13.6962 9.22835 13.1481C9.00129 12.5999 8.94188 11.9967 9.05764 11.4147C9.17339 10.8328 9.45911 10.2982 9.87867 9.87868C10.2982 9.45912 10.8328 9.1734 11.4147 9.05764C11.9967 8.94189 12.5999 9.0013 13.148 9.22836C13.6962 9.45542 14.1648 9.83994 14.4944 10.3333C14.824 10.8266 15 11.4067 15 12C15 12.7956 14.6839 13.5587 14.1213 14.1213C13.5587 14.6839 12.7956 15 12 15Z"/>
</mask>
<path d="M23.1853 11.6962C23.1525 11.6222 22.3584 9.86062 20.5931 8.09531C18.2409 5.74312 15.27 4.5 12 4.5C8.72999 4.5 5.75905 5.74312 3.40687 8.09531C1.64155 9.86062 0.843741 11.625 0.814679 11.6962C0.772035 11.7922 0.75 11.896 0.75 12.0009C0.75 12.1059 0.772035 12.2097 0.814679 12.3056C0.847491 12.3797 1.64155 14.1403 3.40687 15.9056C5.75905 18.2569 8.72999 19.5 12 19.5C15.27 19.5 18.2409 18.2569 20.5931 15.9056C22.3584 14.1403 23.1525 12.3797 23.1853 12.3056C23.2279 12.2097 23.25 12.1059 23.25 12.0009C23.25 11.896 23.2279 11.7922 23.1853 11.6962ZM12 18C9.11437 18 6.59343 16.9509 4.50655 14.8828C3.65028 14.0313 2.92179 13.0603 2.34374 12C2.92164 10.9396 3.65014 9.9686 4.50655 9.11719C6.59343 7.04906 9.11437 6 12 6C14.8856 6 17.4066 7.04906 19.4934 9.11719C20.3514 9.9684 21.0815 10.9394 21.6609 12C20.985 13.2619 18.0403 18 12 18ZM12 7.5C11.11 7.5 10.2399 7.76392 9.49993 8.25839C8.7599 8.75285 8.18313 9.45566 7.84253 10.2779C7.50194 11.1002 7.41282 12.005 7.58646 12.8779C7.76009 13.7508 8.18867 14.5526 8.81801 15.182C9.44735 15.8113 10.2492 16.2399 11.1221 16.4135C11.995 16.5872 12.8998 16.4981 13.7221 16.1575C14.5443 15.8169 15.2471 15.2401 15.7416 14.5001C16.2361 13.76 16.5 12.89 16.5 12C16.4988 10.8069 16.0242 9.66303 15.1806 8.81939C14.337 7.97575 13.1931 7.50124 12 7.5ZM12 15C11.4066 15 10.8266 14.8241 10.3333 14.4944C9.83993 14.1648 9.45542 13.6962 9.22835 13.1481C9.00129 12.5999 8.94188 11.9967 9.05764 11.4147C9.17339 10.8328 9.45911 10.2982 9.87867 9.87868C10.2982 9.45912 10.8328 9.1734 11.4147 9.05764C11.9967 8.94189 12.5999 9.0013 13.148 9.22836C13.6962 9.45542 14.1648 9.83994 14.4944 10.3333C14.824 10.8266 15 11.4067 15 12C15 12.7956 14.6839 13.5587 14.1213 14.1213C13.5587 14.6839 12.7956 15 12 15Z"/>
<path d="M23.1853 11.6962L23.0024 11.7773L23.0026 11.7775L23.1853 11.6962ZM0.814679 11.6962L0.997519 11.7775L0.999865 11.7718L0.814679 11.6962ZM0.814679 12.3056L0.997536 12.2246L0.997431 12.2244L0.814679 12.3056ZM3.40687 15.9056L3.26544 16.047L3.26547 16.0471L3.40687 15.9056ZM20.5931 15.9056L20.7345 16.0471L20.7345 16.047L20.5931 15.9056ZM23.1853 12.3056L23.0026 12.2244L23.0024 12.2246L23.1853 12.3056ZM23.25 12.0009H23.45H23.25ZM4.50655 14.8828L4.36552 15.0246L4.36577 15.0249L4.50655 14.8828ZM2.34374 12L2.16813 11.9043L2.11596 12L2.16814 12.0957L2.34374 12ZM4.50655 9.11719L4.36577 8.97513L4.36555 8.97535L4.50655 9.11719ZM19.4934 9.11719L19.6343 8.97521L19.6342 8.97513L19.4934 9.11719ZM21.6609 12L21.8372 12.0944L21.8883 11.9991L21.8364 11.9041L21.6609 12ZM12 7.5L12.0002 7.3H12V7.5ZM16.5 12H16.7V11.9998L16.5 12ZM23.3682 11.6152C23.33 11.529 22.5238 9.74316 20.7345 7.95389L20.4517 8.23673C22.1931 9.97809 22.975 11.7153 23.0024 11.7773L23.3682 11.6152ZM20.7345 7.95389C18.3456 5.56493 15.3241 4.3 12 4.3V4.7C15.2159 4.7 18.1363 5.92132 20.4517 8.23673L20.7345 7.95389ZM12 4.3C8.67592 4.3 5.65441 5.56493 3.26544 7.95389L3.54829 8.23673C5.8637 5.92132 8.78406 4.7 12 4.7V4.3ZM3.26544 7.95389C1.47716 9.74218 0.666131 11.5309 0.629492 11.6207L0.999865 11.7718C0.999702 11.7722 1.00046 11.7703 1.00268 11.7653C1.0047 11.7607 1.00752 11.7544 1.01117 11.7464C1.01847 11.7304 1.02884 11.7081 1.04235 11.6799C1.06937 11.6235 1.10874 11.544 1.16084 11.4447C1.26506 11.246 1.42001 10.9683 1.62876 10.6379C2.04642 9.97686 2.67827 9.10675 3.54829 8.23673L3.26544 7.95389ZM0.631926 11.615C0.577911 11.7365 0.55 11.868 0.55 12.0009H0.95C0.95 11.924 0.966159 11.8478 0.997431 11.7775L0.631926 11.615ZM0.55 12.0009C0.55 12.1339 0.577911 12.2654 0.631926 12.3869L0.997431 12.2244C0.966159 12.154 0.95 12.0779 0.95 12.0009H0.55ZM0.631821 12.3866C0.670031 12.4729 1.4762 14.2578 3.26544 16.047L3.54829 15.7642C1.80691 14.0228 1.02495 12.2865 0.997536 12.2246L0.631821 12.3866ZM3.26547 16.0471C5.65443 18.4351 8.67593 19.7 12 19.7V19.3C8.78406 19.3 5.86368 18.0787 3.54826 15.7642L3.26547 16.0471ZM12 19.7C15.3241 19.7 18.3456 18.4351 20.7345 16.0471L20.4517 15.7642C18.1363 18.0787 15.2159 19.3 12 19.3V19.7ZM20.7345 16.047C22.5238 14.2578 23.33 12.4729 23.3682 12.3866L23.0024 12.2246C22.975 12.2865 22.1931 14.0228 20.4517 15.7642L20.7345 16.047ZM23.3681 12.3869C23.4221 12.2654 23.45 12.1339 23.45 12.0009H23.05C23.05 12.0779 23.0338 12.154 23.0026 12.2244L23.3681 12.3869ZM23.45 12.0009C23.45 11.868 23.4221 11.7365 23.3681 11.615L23.0026 11.7775C23.0338 11.8478 23.05 11.924 23.05 12.0009H23.45ZM12 17.8C9.16819 17.8 6.69754 16.7725 4.64734 14.7408L4.36577 15.0249C6.48932 17.1293 9.06054 18.2 12 18.2V17.8ZM4.64758 14.741C3.805 13.9031 3.08815 12.9476 2.51934 11.9043L2.16814 12.0957C2.75543 13.173 3.49557 14.1595 4.36552 15.0246L4.64758 14.741ZM2.51935 12.0957C3.088 11.0523 3.80485 10.0968 4.64756 9.25902L4.36555 8.97535C3.49543 9.84039 2.75527 10.827 2.16813 11.9043L2.51935 12.0957ZM4.64734 9.25925C6.69754 7.22746 9.16819 6.2 12 6.2V5.8C9.06054 5.8 6.48932 6.87066 4.36577 8.97513L4.64734 9.25925ZM12 6.2C14.8318 6.2 17.3024 7.22746 19.3526 9.25925L19.6342 8.97513C17.5107 6.87066 14.9394 5.8 12 5.8V6.2ZM19.3526 9.25916C20.1968 10.0968 20.9152 11.0523 21.4854 12.0959L21.8364 11.9041C21.2477 10.8266 20.5059 9.84003 19.6343 8.97521L19.3526 9.25916ZM21.4846 11.9056C20.8159 13.154 17.9223 17.8 12 17.8V18.2C18.1583 18.2 21.1541 13.3697 21.8372 12.0944L21.4846 11.9056ZM12 7.3C11.0704 7.3 10.1617 7.57565 9.38881 8.09209L9.61104 8.42468C10.3182 7.95219 11.1495 7.7 12 7.7V7.3ZM9.38881 8.09209C8.6159 8.60854 8.01349 9.34258 7.65776 10.2014L8.02731 10.3545C8.35277 9.56874 8.90391 8.89717 9.61104 8.42468L9.38881 8.09209ZM7.65776 10.2014C7.30203 11.0602 7.20895 12.0052 7.3903 12.9169L7.78261 12.8389C7.6167 12.0048 7.70185 11.1402 8.02731 10.3545L7.65776 10.2014ZM7.3903 12.9169C7.57165 13.8286 8.01928 14.6661 8.67659 15.3234L8.95943 15.0406C8.35807 14.4392 7.94853 13.673 7.78261 12.8389L7.3903 12.9169ZM8.67659 15.3234C9.3339 15.9807 10.1714 16.4283 11.0831 16.6097L11.1611 16.2174C10.327 16.0515 9.5608 15.6419 8.95943 15.0406L8.67659 15.3234ZM11.0831 16.6097C11.9948 16.791 12.9398 16.698 13.7986 16.3422L13.6455 15.9727C12.8598 16.2981 11.9952 16.3833 11.1611 16.2174L11.0831 16.6097ZM13.7986 16.3422C14.6574 15.9865 15.3915 15.3841 15.9079 14.6112L15.5753 14.389C15.1028 15.0961 14.4313 15.6472 13.6455 15.9727L13.7986 16.3422ZM15.9079 14.6112C16.4243 13.8383 16.7 12.9296 16.7 12H16.3C16.3 12.8505 16.0478 13.6818 15.5753 14.389L15.9079 14.6112ZM16.7 11.9998C16.6987 10.7537 16.2031 9.55907 15.322 8.67797L15.0392 8.96081C15.8454 9.767 16.2988 10.8601 16.3 12.0002L16.7 11.9998ZM15.322 8.67797C14.4409 7.79687 13.2463 7.3013 12.0002 7.3L11.9998 7.7C13.1399 7.70119 14.233 8.15462 15.0392 8.96081L15.322 8.67797ZM12 14.8C11.4462 14.8 10.9049 14.6358 10.4444 14.3281L10.2222 14.6607C10.7484 15.0123 11.3671 15.2 12 15.2V14.8ZM10.4444 14.3281C9.98394 14.0204 9.62505 13.5831 9.41313 13.0715L9.04358 13.2246C9.28578 13.8093 9.69593 14.3091 10.2222 14.6607L10.4444 14.3281ZM9.41313 13.0715C9.2012 12.5599 9.14575 11.9969 9.25379 11.4537L8.86148 11.3757C8.73801 11.9965 8.80138 12.6399 9.04358 13.2246L9.41313 13.0715ZM9.25379 11.4537C9.36183 10.9106 9.6285 10.4117 10.0201 10.0201L9.73725 9.73726C9.28972 10.1848 8.98495 10.755 8.86148 11.3757L9.25379 11.4537ZM10.0201 10.0201C10.4117 9.62851 10.9106 9.36184 11.4537 9.2538L11.3757 8.86149C10.755 8.98496 10.1848 9.28973 9.73725 9.73726L10.0201 10.0201ZM11.4537 9.2538C11.9969 9.14576 12.5599 9.20121 13.0715 9.41314L13.2246 9.04359C12.6399 8.80138 11.9964 8.73801 11.3757 8.86149L11.4537 9.2538ZM13.0715 9.41314C13.5831 9.62506 14.0204 9.98395 14.3281 10.4444L14.6607 10.2222C14.3091 9.69594 13.8093 9.28579 13.2246 9.04359L13.0715 9.41314ZM14.3281 10.4444C14.6358 10.9049 14.8 11.4462 14.8 12H15.2C15.2 11.3671 15.0123 10.7484 14.6607 10.2222L14.3281 10.4444ZM14.8 12C14.8 12.7426 14.505 13.4548 13.9799 13.9799L14.2627 14.2627C14.8628 13.6626 15.2 12.8487 15.2 12H14.8ZM13.9799 13.9799C13.4548 14.505 12.7426 14.8 12 14.8V15.2C12.8487 15.2 13.6626 14.8629 14.2627 14.2627L13.9799 13.9799Z" mask="url(#path-1-outside-1_52_5457)"/>
</svg>
