<svg width="25" height="24" viewBox="0 0 25 24" xmlns="http://www.w3.org/2000/svg">
<path fill-rule="evenodd" clip-rule="evenodd" d="M12.5 8.15002C11.7386 8.15002 10.9942 8.37582 10.3611 8.79887C9.72795 9.22191 9.23449 9.8232 8.94309 10.5267C8.65169 11.2302 8.57545 12.0043 8.724 12.7511C8.87255 13.4979 9.23923 14.184 9.77766 14.7224C10.3161 15.2608 11.0021 15.6275 11.7489 15.776C12.4958 15.9246 13.2699 15.8484 13.9734 15.557C14.6769 15.2656 15.2781 14.7721 15.7012 14.139C16.1242 13.5058 16.35 12.7615 16.35 12C16.35 10.9789 15.9444 9.99968 15.2224 9.27766C14.5004 8.55565 13.5211 8.15002 12.5 8.15002ZM12.5 14.15C12.0748 14.15 11.6591 14.0239 11.3055 13.7877C10.952 13.5514 10.6764 13.2157 10.5137 12.8228C10.351 12.4299 10.3084 11.9976 10.3913 11.5806C10.4743 11.1635 10.6791 10.7804 10.9797 10.4797C11.2804 10.1791 11.6635 9.97429 12.0806 9.89134C12.4976 9.80838 12.9299 9.85095 13.3228 10.0137C13.7157 10.1764 14.0514 10.452 14.2877 10.8055C14.5239 11.1591 14.65 11.5748 14.65 12C14.65 12.5702 14.4235 13.1171 14.0203 13.5203C13.6171 13.9235 13.0702 14.15 12.5 14.15ZM23 5.15002H2.00002C1.77459 5.15002 1.55839 5.23958 1.39898 5.39898C1.23958 5.55839 1.15002 5.77459 1.15002 6.00002V18C1.15002 18.2255 1.23958 18.4417 1.39898 18.6011C1.55839 18.7605 1.77459 18.85 2.00002 18.85H23C23.2255 18.85 23.4417 18.7605 23.6011 18.6011C23.7605 18.4417 23.85 18.2255 23.85 18V6.00002C23.85 5.77459 23.7605 5.55839 23.6011 5.39898C23.4417 5.23958 23.2255 5.15002 23 5.15002ZM19.9246 14.9246C19.3025 15.5467 18.8414 16.3106 18.5805 17.15H6.41951C6.15865 16.3106 5.69751 15.5467 5.07541 14.9246C4.4533 14.3025 3.68947 13.8414 2.85002 13.5805V10.4195C3.68947 10.1587 4.4533 9.69751 5.07541 9.07541C5.69751 8.4533 6.15865 7.68947 6.41951 6.85002H18.5805C18.8414 7.68947 19.3025 8.4533 19.9246 9.07541C20.5467 9.69751 21.3106 10.1587 22.15 10.4195V13.5805C21.3106 13.8414 20.5467 14.3025 19.9246 14.9246ZM22.15 6.85002V8.59818C21.3854 8.23147 20.7686 7.61465 20.4019 6.85002H22.15ZM2.85002 6.85002H4.59818C4.23147 7.61466 3.61466 8.23147 2.85002 8.59818V6.85002ZM2.85002 17.15V15.4019C3.61466 15.7686 4.23147 16.3854 4.59818 17.15H2.85002ZM22.15 17.15H20.4019C20.7686 16.3854 21.3854 15.7686 22.15 15.4019V17.15Z"/>
</svg>
