<svg width="25" height="24" viewBox="0 0 25 24" xmlns="http://www.w3.org/2000/svg">
<path d="M12.5 2.25C10.5716 2.25 8.68657 2.82183 7.08319 3.89317C5.47982 4.96451 4.23013 6.48726 3.49218 8.26884C2.75422 10.0504 2.56114 12.0108 2.93735 13.9021C3.31355 15.7934 4.24215 17.5307 5.60571 18.8943C6.96928 20.2579 8.70656 21.1865 10.5979 21.5627C12.4892 21.9389 14.4496 21.7458 16.2312 21.0078C18.0127 20.2699 19.5355 19.0202 20.6068 17.4168C21.6782 15.8134 22.25 13.9284 22.25 12C22.2473 9.41498 21.2192 6.93661 19.3913 5.10872C17.5634 3.28084 15.085 2.25273 12.5 2.25ZM7.445 18.5156C7.98757 17.6671 8.73501 16.9688 9.61843 16.4851C10.5019 16.0013 11.4928 15.7478 12.5 15.7478C13.5072 15.7478 14.4982 16.0013 15.3816 16.4851C16.265 16.9688 17.0124 17.6671 17.555 18.5156C16.1097 19.6397 14.331 20.2499 12.5 20.2499C10.669 20.2499 8.89031 19.6397 7.445 18.5156ZM9.5 11.25C9.5 10.6567 9.67595 10.0766 10.0056 9.58329C10.3352 9.08994 10.8038 8.70542 11.352 8.47836C11.9001 8.2513 12.5033 8.19189 13.0853 8.30764C13.6672 8.4234 14.2018 8.70912 14.6213 9.12868C15.0409 9.54824 15.3266 10.0828 15.4424 10.6647C15.5581 11.2467 15.4987 11.8499 15.2716 12.3981C15.0446 12.9462 14.6601 13.4148 14.1667 13.7444C13.6734 14.0741 13.0933 14.25 12.5 14.25C11.7044 14.25 10.9413 13.9339 10.3787 13.3713C9.81607 12.8087 9.5 12.0456 9.5 11.25ZM18.665 17.4759C17.8285 16.2638 16.6524 15.3261 15.2844 14.7806C16.0192 14.2019 16.5554 13.4085 16.8184 12.5108C17.0815 11.6132 17.0582 10.6559 16.752 9.77207C16.4457 8.88825 15.8716 8.12183 15.1096 7.5794C14.3475 7.03696 13.4354 6.74548 12.5 6.74548C11.5646 6.74548 10.6525 7.03696 9.89044 7.5794C9.12839 8.12183 8.55432 8.88825 8.24805 9.77207C7.94179 10.6559 7.91855 11.6132 8.18157 12.5108C8.44459 13.4085 8.9808 14.2019 9.71563 14.7806C8.34765 15.3261 7.17147 16.2638 6.335 17.4759C5.27804 16.2873 4.5872 14.8185 4.34567 13.2464C4.10415 11.6743 4.32224 10.0658 4.97368 8.61478C5.62512 7.16372 6.68213 5.93192 8.01745 5.06769C9.35276 4.20346 10.9094 3.74367 12.5 3.74367C14.0906 3.74367 15.6473 4.20346 16.9826 5.06769C18.3179 5.93192 19.3749 7.16372 20.0263 8.61478C20.6778 10.0658 20.8959 11.6743 20.6543 13.2464C20.4128 14.8185 19.722 16.2873 18.665 17.4759Z"/>
<path fill-rule="evenodd" clip-rule="evenodd" d="M12.5 2.15002H12.5001C15.1116 2.15278 17.6154 3.19142 19.462 5.03804C21.3086 6.88465 22.3473 9.38841 22.35 11.9999V12C22.35 13.9482 21.7723 15.8526 20.69 17.4724C19.6077 19.0922 18.0693 20.3547 16.2695 21.1002C14.4696 21.8458 12.4891 22.0408 10.5784 21.6608C8.66768 21.2807 6.91257 20.3426 5.53503 18.965C4.15748 17.5875 3.21936 15.8324 2.83929 13.9217C2.45923 12.011 2.65429 10.0304 3.39982 8.23059C4.14534 6.43074 5.40784 4.89238 7.02766 3.81005C8.64749 2.72772 10.5519 2.15002 12.5 2.15002ZM22.25 12C22.25 13.9284 21.6782 15.8135 20.6069 17.4168C19.5355 19.0202 18.0128 20.2699 16.2312 21.0078C14.4496 21.7458 12.4892 21.9389 10.5979 21.5627C8.70658 21.1865 6.9693 20.2579 5.60574 18.8943C4.24218 17.5308 3.31358 15.7935 2.93737 13.9022C2.56117 12.0108 2.75425 10.0504 3.4922 8.26886C4.23016 6.48728 5.47984 4.96454 7.08322 3.8932C8.6866 2.82185 10.5717 2.25002 12.5 2.25002C15.0851 2.25275 17.5634 3.28086 19.3913 5.10875C21.2192 6.93664 22.2473 9.415 22.25 12ZM7.44503 18.5156C8.89034 19.6397 10.6691 20.25 12.5 20.25C14.331 20.25 16.1097 19.6397 17.555 18.5156C17.0125 17.6671 16.265 16.9688 15.3816 16.4851C14.4982 16.0014 13.5072 15.7478 12.5 15.7478C11.4929 15.7478 10.5019 16.0014 9.61845 16.4851C8.73503 16.9688 7.98759 17.6671 7.44503 18.5156ZM17.4208 18.4927C16.8918 17.6929 16.1755 17.0338 15.3336 16.5728C14.4649 16.0971 13.4904 15.8478 12.5 15.8478C11.5096 15.8478 10.5352 16.0971 9.66648 16.5728C8.82459 17.0338 8.10829 17.6929 7.57925 18.4927C8.99371 19.5674 10.7219 20.15 12.5 20.15C14.2781 20.15 16.0063 19.5674 17.4208 18.4927ZM10.0888 9.63887C9.77011 10.1158 9.60003 10.6765 9.60003 11.25C9.60003 12.0192 9.90556 12.7568 10.4494 13.3006C10.9933 13.8445 11.7309 14.15 12.5 14.15C13.0736 14.15 13.6343 13.9799 14.1112 13.6613C14.5881 13.3426 14.9598 12.8897 15.1793 12.3598C15.3988 11.8299 15.4562 11.2468 15.3443 10.6843C15.2324 10.1217 14.9562 9.60499 14.5506 9.19941C14.1451 8.79384 13.6283 8.51764 13.0658 8.40575C12.5032 8.29385 11.9202 8.35128 11.3902 8.57077C10.8603 8.79027 10.4074 9.16197 10.0888 9.63887ZM18.6061 17.3917C18.6259 17.4197 18.6456 17.4477 18.665 17.476C18.6879 17.4503 18.7105 17.4245 18.733 17.3985C19.7516 16.2238 20.4181 14.7846 20.6544 13.2464C20.8959 11.6743 20.6778 10.0659 20.0264 8.6148C19.3749 7.16375 18.3179 5.93194 16.9826 5.06771C15.6473 4.20349 14.0906 3.74369 12.5 3.74369C10.9095 3.74369 9.35278 4.20349 8.01747 5.06771C6.68216 5.93194 5.62514 7.16375 4.9737 8.6148C4.32226 10.0659 4.10417 11.6743 4.3457 13.2464C4.582 14.7846 5.24841 16.2238 6.26702 17.3985C6.28952 17.4245 6.31219 17.4503 6.33503 17.476C6.3545 17.4477 6.37416 17.4197 6.39401 17.3917C7.20425 16.2515 8.31846 15.3618 9.60953 14.8239C9.64478 14.8092 9.68015 14.7948 9.71565 14.7807C9.68566 14.757 9.65599 14.733 9.62666 14.7087C8.9375 14.1369 8.43388 13.3719 8.1816 12.5109C7.91857 11.6132 7.94181 10.6559 8.24808 9.7721C8.55435 8.88827 9.12842 8.12185 9.89046 7.57942C10.6525 7.03699 11.5646 6.7455 12.5 6.7455C13.4354 6.7455 14.3476 7.03699 15.1096 7.57942C15.8716 8.12185 16.4457 8.88827 16.752 9.7721C17.0582 10.6559 17.0815 11.6132 16.8185 12.5109C16.5662 13.3719 16.0626 14.1369 15.3734 14.7087C15.3441 14.733 15.3144 14.757 15.2844 14.7807C15.3199 14.7948 15.3553 14.8092 15.3905 14.8239C16.6816 15.3618 17.7958 16.2515 18.6061 17.3917ZM18.6737 17.3143C19.6708 16.1573 20.3233 14.7426 20.5555 13.2312C20.7941 11.6782 20.5787 10.0892 19.9351 8.65576C19.2916 7.22229 18.2474 6.00542 16.9283 5.15167C15.6091 4.29792 14.0713 3.84369 12.5 3.84369C10.9287 3.84369 9.39093 4.29792 8.0718 5.15167C6.75268 6.00542 5.70847 7.22229 5.06493 8.65576C4.42138 10.0892 4.20594 11.6782 4.44454 13.2312C4.67673 14.7426 5.32926 16.1573 6.32641 17.3143C7.13614 16.1824 8.24222 15.2959 9.52266 14.752C8.83877 14.1713 8.3386 13.4023 8.08563 12.539C7.81676 11.6214 7.84052 10.6428 8.15359 9.73936C8.46666 8.83589 9.05349 8.05244 9.83247 7.49795C10.6114 6.94347 11.5439 6.6455 12.5 6.6455C13.4562 6.6455 14.3886 6.94347 15.1676 7.49795C15.9466 8.05244 16.5334 8.83589 16.8465 9.73936C17.1595 10.6428 17.1833 11.6214 16.9144 12.539C16.6615 13.4023 16.1613 14.1713 15.4774 14.752C16.7578 15.2959 17.8639 16.1824 18.6737 17.3143ZM10.0056 9.58331C9.67598 10.0767 9.50003 10.6567 9.50003 11.25C9.50003 12.0457 9.8161 12.8087 10.3787 13.3713C10.9413 13.934 11.7044 14.25 12.5 14.25C13.0934 14.25 13.6734 14.0741 14.1667 13.7444C14.6601 13.4148 15.0446 12.9463 15.2717 12.3981C15.4987 11.8499 15.5581 11.2467 15.4424 10.6648C15.3266 10.0828 15.0409 9.54826 14.6213 9.1287C14.2018 8.70915 13.6672 8.42342 13.0853 8.30767C12.5034 8.19191 11.9002 8.25132 11.352 8.47839C10.8038 8.70545 10.3353 9.08997 10.0056 9.58331Z" fill="#6E6F76"/>
</svg>
