<svg width="512" height="492" viewBox="0 0 512 492" xmlns="http://www.w3.org/2000/svg">
<path fill-rule="evenodd" clip-rule="evenodd" d="M440.32 381.952H427.008V76.8004C427.008 72.1836 425.175 67.7558 421.911 64.4911C418.646 61.2266 414.218 59.3924 409.6 59.3924H302.08C297.464 59.3924 293.036 61.2266 289.772 64.4911C286.507 67.7558 284.672 72.1836 284.672 76.8004V151.552H194.56C189.944 151.552 185.516 153.387 182.251 156.651C178.987 159.916 177.152 164.344 177.152 168.96V243.712H102.4C97.7836 243.712 93.3558 245.547 90.0911 248.812C86.8266 252.076 84.9924 256.504 84.9924 261.12V381.952H71.6804C67.0636 381.952 62.6358 383.787 59.3711 387.052C56.1066 390.316 54.2724 394.744 54.2724 399.36C54.2724 403.978 56.1066 408.406 59.3711 411.671C62.6358 414.935 67.0636 416.768 71.6804 416.768H440.32C444.938 416.768 449.366 414.935 452.631 411.671C455.895 408.406 457.728 403.978 457.728 399.36C457.728 394.744 455.895 390.316 452.631 387.052C449.366 383.787 444.938 381.952 440.32 381.952ZM319.488 94.2084H392.192V381.952H319.488V94.2084ZM211.968 186.368H284.672V381.952H211.968V186.368ZM119.808 278.528H177.152V381.952H119.808V278.528Z"/>
</svg>
